/* XPM */
static char * bitcoin64_xpm[] = {
"64 64 262 2",
"  	c None",
". 	c #2E3132",
"+ 	c #2F3233",
"@ 	c #2E3133",
"# 	c #2E3233",
"$ 	c #2E3232",
"% 	c #2F3234",
"& 	c #303335",
"* 	c #2F3334",
"= 	c #2E3234",
"- 	c #2F3133",
"; 	c #2F3335",
"> 	c #2F3436",
", 	c #303436",
"' 	c #313538",
") 	c #313638",
"! 	c #313537",
"~ 	c #2F3235",
"{ 	c #303437",
"] 	c #303537",
"^ 	c #313639",
"/ 	c #32383B",
"( 	c #33393C",
"_ 	c #343B3F",
": 	c #303435",
"< 	c #2E3033",
"[ 	c #2E2F32",
"} 	c #2E3032",
"| 	c #2E2E31",
"1 	c #2C423F",
"2 	c #296657",
"3 	c #267B66",
"4 	c #286F5E",
"5 	c #2A544B",
"6 	c #249C7C",
"7 	c #20CB9C",
"8 	c #20C699",
"9 	c #1FCF9F",
"0 	c #2C433F",
"a 	c #2F3336",
"b 	c #21B88F",
"c 	c #20C598",
"d 	c #1FD2A1",
"e 	c #2B534B",
"f 	c #2E2C30",
"g 	c #23A07E",
"h 	c #1ED3A2",
"i 	c #2E3738",
"j 	c #296355",
"k 	c #20C99B",
"l 	c #20C89B",
"m 	c #20C79A",
"n 	c #23AC87",
"o 	c #2F2D31",
"p 	c #2F2A2E",
"q 	c #21BF94",
"r 	c #21BB91",
"s 	c #2F1F27",
"t 	c #27735F",
"u 	c #2A5E52",
"v 	c #303336",
"w 	c #2C3F3C",
"x 	c #2B4A43",
"y 	c #2B4D46",
"z 	c #2B4B45",
"A 	c #286E5D",
"B 	c #20CC9C",
"C 	c #2F292E",
"D 	c #26856D",
"E 	c #22AB86",
"F 	c #2D4541",
"G 	c #2C4D47",
"H 	c #2C4C46",
"I 	c #2C4541",
"J 	c #2D3637",
"K 	c #27715F",
"L 	c #1FD5A3",
"M 	c #20C89A",
"N 	c #276E5D",
"O 	c #2F262C",
"P 	c #1FD0A0",
"Q 	c #20CC9D",
"R 	c #21B38C",
"S 	c #2E3B3B",
"T 	c #20BF94",
"U 	c #20C599",
"V 	c #22A380",
"W 	c #2C413D",
"X 	c #296154",
"Y 	c #1ED5A4",
"Z 	c #1FCE9F",
"` 	c #295E52",
" .	c #303538",
"..	c #353C40",
"+.	c #31373B",
"@.	c #2E2D31",
"#.	c #23A683",
"$.	c #1FD3A1",
"%.	c #2D3E3C",
"&.	c #31373A",
"*.	c #2B564C",
"=.	c #20C799",
"-.	c #249C7D",
";.	c #2E2E32",
">.	c #258B71",
",.	c #21BC92",
"'.	c #249175",
").	c #295F52",
"!.	c #20C196",
"~.	c #27836C",
"{.	c #287662",
"].	c #21B18C",
"^.	c #2F242A",
"/.	c #2E2D30",
"(.	c #24A180",
"_.	c #21B58E",
":.	c #2F282D",
"<.	c #1FD3A2",
"[.	c #277D67",
"}.	c #2E3334",
"|.	c #296859",
"1.	c #2D3E3D",
"2.	c #249D7C",
"3.	c #2F272D",
"4.	c #2B4D47",
"5.	c #25997A",
"6.	c #277763",
"7.	c #2D3B3A",
"8.	c #2F3333",
"9.	c #2E3135",
"0.	c #268069",
"a.	c #2A5C51",
"b.	c #267D67",
"c.	c #2F252B",
"d.	c #2E2B2F",
"e.	c #21BB92",
"f.	c #1FCE9E",
"g.	c #30242A",
"h.	c #2E3134",
"i.	c #2B4E47",
"j.	c #21B68E",
"k.	c #259074",
"l.	c #2F2E32",
"m.	c #248B71",
"n.	c #28705E",
"o.	c #249779",
"p.	c #267E67",
"q.	c #2E3335",
"r.	c #2D3737",
"s.	c #2B5249",
"t.	c #2A5B50",
"u.	c #2D3938",
"v.	c #23A682",
"w.	c #1FCFA0",
"x.	c #2C4440",
"y.	c #2F2F33",
"z.	c #249D7D",
"A.	c #23A482",
"B.	c #267763",
"C.	c #20C397",
"D.	c #30282D",
"E.	c #2F3033",
"F.	c #259678",
"G.	c #2D3B39",
"H.	c #2A534A",
"I.	c #20CB9D",
"J.	c #1FD2A2",
"K.	c #2E2F31",
"L.	c #258E73",
"M.	c #1FD4A2",
"N.	c #2F2B30",
"O.	c #259377",
"P.	c #24997A",
"Q.	c #2E3333",
"R.	c #295B50",
"S.	c #20CA9C",
"T.	c #23A381",
"U.	c #302E32",
"V.	c #259779",
"W.	c #296053",
"X.	c #277B66",
"Y.	c #2D3D3B",
"Z.	c #1FCC9D",
"`.	c #25856D",
" +	c #2F2F32",
".+	c #24A080",
"++	c #20C99A",
"@+	c #258B72",
"#+	c #296B5B",
"$+	c #2A5249",
"%+	c #258F74",
"&+	c #2B4742",
"*+	c #249D7E",
"=+	c #2B4A44",
"-+	c #20CD9D",
";+	c #23AA86",
">+	c #2E3235",
",+	c #258D72",
"'+	c #2C3F3D",
")+	c #296255",
"!+	c #20C095",
"~+	c #22A985",
"{+	c #2F2C31",
"]+	c #23A180",
"^+	c #2E292D",
"/+	c #2C4340",
"(+	c #296C5B",
"_+	c #2C3E3C",
":+	c #239C7D",
"<+	c #2F242B",
"[+	c #2F252C",
"}+	c #26866D",
"|+	c #2D3939",
"1+	c #277C67",
"2+	c #22B68E",
"3+	c #21B890",
"4+	c #2D3636",
"5+	c #26826B",
"6+	c #2E3034",
"7+	c #277F68",
"8+	c #2E2B30",
"9+	c #25836B",
"0+	c #2C4743",
"a+	c #28715F",
"b+	c #2E2F33",
"c+	c #2D403E",
"d+	c #26836A",
"e+	c #1ED8A5",
"f+	c #20CD9E",
"g+	c #26876F",
"h+	c #2F3134",
"i+	c #2C413E",
"j+	c #1FCD9D",
"k+	c #1FD1A0",
"l+	c #20BC92",
"m+	c #2B4E48",
"n+	c #2B4A45",
"o+	c #1FCB9D",
"p+	c #2C4B46",
"q+	c #2E3336",
"r+	c #21B48D",
"s+	c #249376",
"t+	c #2E3436",
"u+	c #2F2D30",
"v+	c #249678",
"w+	c #22B28C",
"x+	c #2D3A3A",
"y+	c #2D3C3B",
"z+	c #268A70",
"A+	c #32373A",
"B+	c #21B990",
"C+	c #303438",
"D+	c #313739",
"E+	c #1FCB9C",
"F+	c #1ED6A4",
"G+	c #26846C",
"H+	c #2C5049",
"I+	c #2C4A45",
"J+	c #2F3437",
"K+	c #2E3236",
"L+	c #2F3236",
"M+	c #303639",
". . . . . . . . . . . . . . . . + + . . . . . . . . . . . . . . . . @ + + # # $ . . . . # # % % # + # # % & % + # + + + # . . . ",
"# . . @ . . . . . . . . . . # + # . . . . . . . . . . . . . @ $ # # + @ @ . . . . . . . # + * = . # # . - * % % + + + % + . . . ",
"+ . . @ @ . . . . . . . @ + * @ . . . . . . . . . . . . . + + # # @ . . . . . . . . . @ + * % . . @ + . . % + + + + * ; % @ . # ",
"* . . @ @ . . . . . . $ % % # . . . . . . . . . @ @ # + # # @ . . . . . . . . . . . @ # % * + . . @ # . . + # # # + % * ; * # # ",
"; % . . @ @ @ . . . # + + # @ @ @ . . . . # + + + + @ . . . . . . . . . . . . . . . # # * * @ . . . @ # . @ - . @ # # % ; & ; * ",
"% * . . @ # @ @ . + + . . . @ @ # + + + + # # @ . . . . . . . . . . . . . . . . . . @ % * + # . . . @ + . # + . . @ # % > , , ; ",
"% ; + . . @ # % % # . . . . # % % * % # @ . . . . . . . . . . . . . . . . . . . . @ + * % + @ . . . . + # @ % . . . . * ' ) ! * ",
"% ; ~ . . @ % * % # @ # + % + + # # @ @ @ . . . . . . . . . . . . . . . . . . . . . + % % # . . . . . @ # @ % . . . . * ' ) { * ",
"# ; , @ @ % ; ; * % % + # @ . . . . @ @ @ @ . . . . . . . . . . . . . . . . . . . + % * % @ . . . . . @ + # % @ . @ + ; , ] ; + ",
"@ = ^ / , ; * * % + . . . . . . . . . @ @ @ @ @ . . . . . . . . . . . . . . . . . = * % # @ . . . . . . # = % + @ % % % ; = @ @ ",
"% ; ( _ ' ; % % = # @ . . . . . . . . . @ @ @ @ @ . . . . . . . . . . . . . . . # % * % # . . . . . . . @ % % % % % % % # # . . ",
"; , ] { : ; ; ; ; ; % # @ @ . . . . . . . @ # # @ @ . . . . . . . . . . . . . . % * * = @ . . . . . . . # % ; ; * % # # # @ . . ",
"; , ; # = % % % % ; ; ; % % + @ @ @ . . @ @ @ # # @ @ @ . . . . . . . . . . . @ % * % + # @ . . . . . . @ * ; , * @ @ # # @ . . ",
"; ; = = # % # @ @ % ; ; % % % % % = # # @ @ @ @ # # @ @ @ @ < [ } @ @ @ @ . @ + % % % = @ @ @ @ @ @ @ @ # % , , = @ @ + # . . @ ",
"; ; % = # # % = @ @ % * * % + # # # # % % % % % % = # # | 1 2 3 4 5 [ @ @ @ @ % * % % # @ @ @ @ @ @ @ # % * ; ; = @ @ = # @ @ @ ",
"; ; % = # @ @ % = @ @ @ % % = % = # @ @ @ @ @ # % * ; ; 6 7 8 8 8 8 9 0 } @ @ % % % = @ @ @ @ @ @ @ # % % % % ; = @ # = @ @ @ @ ",
"a * % = = @ @ @ % # @ @ # = = # % = = # @ @ @ @ @ @ [ b c 8 8 8 8 8 8 d e @ = % % % = @ @ @ @ @ @ # % % = @ @ * ~ # # + @ @ @ @ ",
", * % % = # @ @ # % @ @ @ = # @ @ @ # = = = # @ @ f g c 8 8 8 8 8 8 8 8 h i % % % % = @ @ @ @ # # % % # @ @ @ % * = = # @ @ @ % ",
"> * % % = # @ @ @ % % @ @ # % @ @ @ @ @ # = % = # j k 8 8 8 8 l m 8 8 8 8 n o a ; ; % # @ @ # = % % = @ @ @ @ # ; % % # @ # % @ ",
"; % * % # # @ @ @ @ % = @ @ = = @ @ @ @ @ @ # = p q 8 8 8 8 r s t k 8 8 8 k u * ; ; ; ; ; ; * ; * = @ @ @ @ @ @ v ; % = % % @ @ ",
"; ~ % = = # @ @ @ @ @ % = @ = = # @ } @ w x y z A l 8 8 8 B C = @ D 8 8 8 8 E F G H I J < % ; a ; ~ = # @ @ @ @ = , ; % = @ @ @ ",
"; % % % = @ @ @ @ @ @ @ % = # = = # K L M 8 8 8 8 8 8 8 m N . = = O P 8 8 8 8 8 8 8 8 Q R S - = = = = % % % % # ~ ^ , ; # @ @ @ ",
"% % % = # # @ @ @ @ @ @ # % = = } T U 8 8 8 8 8 8 8 8 8 8 Q V W X Y 8 8 8 8 8 8 8 8 8 8 8 Z ` # @ @ @ = = % ; a  ...+.a a v , , ",
"% % % = = = @ @ @ @ @ @ @ # % @.#.8 8 8 8 8 8 8 8 8 8 8 8 8 8 8 8 8 8 8 8 8 8 8 8 8 8 8 8 8 $.%.= = = = = % ; ; { &.; @ @ @ @ @ ",
"% % = % = = # @ @ @ @ @ @ @ = *.7 8 8 8 8 8 =.8 8 8 8 8 8 8 8 8 8 8 8 8 8 8 8 8 8 8 8 8 8 8 8 -.;.= = = = ~ ~ % ~ = @ @ @ @ @ @ ",
"% % % = = = @ # @ @ @ @ @ @ < >.8 8 8 =.,.'.).!.8 8 8 8 8 8 8 8 8 8 8 8 8 8 8 M ~.{.].c 8 8 8 L ^.@ # % % = @ @ ; @ @ @ @ @ @ @ ",
"= % = = = # = @ @ @ @ @ @ @ /.(.8 8 8 _.:.@ /.<.8 8 8 8 8 8 8 8 8 8 8 8 8 8 8 8 [.; }.|.M 8 8 9 1.= % % @ @ @ @ ; @ @ @ @ @ @ @ ",
"= % = = = = # # @ @ @ @ @ @ @.2.8 8 8 U 3.@ 4.Q 8 8 8 8 8 8 8 8 8 8 8 8 8 8 8 8 5.[ @ 6.8 8 8 P 7.% # @ @ @ @ 8.9.@ @ @ @ @ @ @ ",
"= = = = = # = @ @ # @ @ @ @ @ 0.8 8 8 k a.@ b.8 8 8 8 8 8 8 E c.X 8 8 8 8 8 8 8 c d.:.e.8 8 8 f.g.@ @ @ @ @ # ; h.@ @ @ @ @ @ @ ",
"= = = = = = # # @ # # @ @ @ @ i.Q 8 8 8 j.k.U 8 8 8 8 8 l [ @ = % l.m.8 8 8 8 8 8 d n.m 8 8 8 o.| @ @ @ @ @ # ; @ @ @ @ @ @ @ @ ",
"= = = = = = = = # # # # # # # C R 8 8 8 8 8 8 8 8 8 8 p.} @ @ q.% = = r.f.8 8 8 8 8 8 8 8 8 7 s.@ @ @ @ @ @ % @ @ @ @ @ @ @ @ @ ",
"= = = = = = = # = = = = # = = = t.k 8 8 8 8 8 8 8 8 P u.@ f v.8 w.x.% y.z.8 8 8 8 8 8 8 8 8 A.f @ @ @ @ @ @ ; h.@ @ @ @ @ @ @ @ ",
"= = = = = = # = = = = = = = = = ;.6 8 8 8 8 8 8 8 8 d @ # B.8 8 8 C.D.E.F.8 8 8 8 8 8 8 8 w.G.@ @ @ @ @ @ @ ; h.@ @ @ @ @ @ @ @ ",
"= = = = h.= = = = h.= = = = = = = H.I.8 8 8 8 8 8 8 J.K.[ L.8 8 8 M.N.E.O.8 8 8 8 8 8 8 8 P.| @ @ @ @ @ @ Q.% @ @ @ @ @ @ @ @ @ ",
"* = = = = h.= = = = = = = = = = c.=.8 8 8 8 8 8 8 8 d = @ R.S.8 8 T.U.E.V.8 8 8 8 8 8 8 8 k W.@ @ @ @ @ @ ; @ @ @ @ @ @ @ @ @ @ ",
"; ~ = = = = h.= h.h.= = = = = = X.8 8 8 8 8 8 8 8 8 9 Y.@ ~ F Z.`.~ ~  +.+8 8 8 8 8 8 8 8 8 m ^.@ @ @ @ 9.; = @ @ @ @ @ @ @ @ @ ",
"; ; ~ = = = h.h.h.= h.= = = = c.P 8 8 8 8 m 8 8 8 8 8 ++[ a > a ; ~ l.@+8 8 8 8 8 8 m 8 8 8 m #+@ @ @ @ ; = @ @ @ @ @ @ @ @ @ @ ",
"; ; ~ ~ = = # @ h.@ = = = = = j k 8 8 8 F.$+Z 8 8 8 8 8 8 %+U.a ~ &+m 8 8 8 8 8 U *+=+-+8 8 8 ;+d.@ @ # ; h.@ @ @ @ @ @ @ @ @ @ ",
"% >+~ ~ % = = h.h.h.h.= h.= < ,+8 8 8 9 '+h.)+k 8 8 8 8 8 8 C.b.!+m 8 8 8 8 8 8 ~+{+/.]+8 8 8 <.^+@ @ >+; @ @ @ @ @ @ @ @ @ @ @ ",
"= = >+~ ~ ~ = = h.@ h.h.= = | ]+8 8 8 j.p = /+f.8 8 8 8 8 8 8 8 8 8 8 8 8 8 8 8 ,+< @ (+m 8 8 9 _+@ @ }.~ @ @ @ @ @ @ @ @ @ @ @ ",
"= = = = ~ ~ ; = = @ @ @ h.h.[ :+8 8 8 f.<+@ [+d 8 8 8 8 8 8 8 8 8 8 8 8 8 8 8 m n.= N.}+8 8 8 P |+@ h.; h.@ h.h.h.h.h.h.h.h.h.h.",
"= = = = = ~ ~ ~ >+h.@ @ h.h.= 1+8 8 8 8 8 e.2+c 8 8 8 8 8 8 8 8 8 8 8 8 8 8 8 8 e.3+!.=.8 8 8 =.[+@ q.~ @ @ h.h.h.@ @ h.@ h.@ h.",
"= = = = = = ~ ~ ~ = = @ @ h.= 4+M.8 8 8 8 8 8 8 8 8 8 8 8 8 8 8 8 8 8 8 8 8 8 8 8 8 8 8 8 8 U 5+@ h.; = @ h.@ h.h.h.h.@ @ h.h.h.",
"= = = = = = = = ~ ~ >+= h.h.h.6+7+8 8 8 8 8 8 8 8 8 8 8 8 8 8 P k 8 8 8 8 8 8 8 8 8 8 8 8 8 C.8+h.= ; h.h.h.h.h.h.h.h.h.h.h.h.h.",
"= = = = = = = = = >+~ >+= h.h.h.< 9+S.8 8 8 8 8 8 8 8 8 8 E 0+h.Y.a+7 8 8 8 8 8 8 8 8 8 U C.q.h.h.>+% h.h.h.h.h.h.h.h.h.h.h.h.h.",
"= = = = = = = = = = = >+>+>+= h.= b+c+d+e+P f.9 f+8 8 8 8 g+h+= = i+j+8 8 8 M k+f.Z <.l+m+< h.h.h.; h.h.h.h.h.h.h.h.h.h.h.h.h.h.",
"= = = = = = = = h.h.= = >+~ >+= h.= = @ < }.> > n+f.8 8 8 o+p+q+<+r+8 8 8 U s+< t+q.6+;.h.h.h.h.h.; h.h.h.h.h.h.h.h.h.h.h.h.h.h.",
"= = = = = = = = = h.h.h.= >+~ >+= = = = = >+; >+u+T.8 8 8 8 c v+w+m 8 8 8 <.x+>+>+= h.h.h.h.h.h.= % h.h.h.h.h.h.h.h.h.h.h.h.h.h.",
">+= = = = = = = = h.h.h.h.= >+>+; { ~ = = ; ~ = = y+M.8 8 8 8 8 8 8 8 8 U z+b+= ~ = h.h.h.h.h.= ; >+h.h.h.h.h.h.h.h.h.h.h.h.h.h.",
"~ = = = = = = = = = = h.h.h.= ~  .A+ .; ; ; = = = % {.l 8 8 8 8 8 8 8 8 B+@.h.= ~ = h.h.h.h.h.= ; = h.h.h.h.h.h.h.h.h.h.h.h.h.h.",
">+~ = = = = = = = = = h.h.h.h.= C+D+ .; >+= = = = ~ y.D k 8 8 8 8 8 c !.t+h.h.= ~ = h.h.h.h.h.= ~ h.h.h.h.h.h.h.h.h.h.h.h.h.h.h.",
"~ ~ = = = = = = = = = = = h.= >+; ; ; ; = = = = >+; >+[ $+E+Q M k F+G+= = h.h.= ~ = h.= = h.= ; = h.h.= = h.h.= = = = h.h.h.h.h.",
"; ~ >+= = = = = = = = h.h.= >+~ >+>+; >+h.h.= = >+; = = = | i+H+I+J+E.h.= h.h.= >+>+h.= = = = a h.= h.h.= h.= h.= h.= h.h.= = = ",
"; >+>+= = = = = = = = = = = ~ ~ >+~ >+h.h.h.= = % ; = = = = = ~ >+a K+= h.= h.= >+= h.= = = >+; = = = h.= h.= = h.= = h.h.h.= h.",
"; >+~ = = = = = = = = = >+~ ~ >+~ ; = h.h.h.= = >+; >+= = = ~ ~ ~ ~ a = h.h.h.= >+= h.h.h.= a >+h.= h.h.h.h.h.h.h.h.h.= h.h.= = ",
"~ >+>+= = = = = = = = >+>+>+>+>+q.= = = h.= h.= >+>+= = = = >+~ ~ >+~ ; = h.h.= >+= = = h.% L+h.h.= h.h.= h.h.h.h.= = = h.h.h.= ",
"; >+>+= = = = = = = >+>+>+>+>+; >+= = = = h.= = ~ >+= = = >+~ ~ ~ >+>+a = = h.= >+= h.h.h.; = h.h.= = h.= = = = = h.h.= = = h.= ",
"~ >+>+= = = = = = >+>+>+>+>+; ~ h.h.= = = h.h.= q.>+= = = >+~ ~ >+= = ; >+= = = ~ = = = = a = = = = h.h.= h.= = = = = = = h.= = ",
">+>+>+= = = = = = >+~ >+>+>+q.= h.= h.= = = = = ; = = = = >+>+>+>+= = = a = = = q.= = = * K+h.= = = = = = = = = = = = = = = = = ",
">+>+>+>+>+= = = >+~ >+>+>+; >+= = = = = = = = = ~ = = = = >+>+>+>+= = >+a ; = = >+= = = ; = = = = = = = = = = = = = = = = = = = ",
"; >+>+>+= >+>+>+~ ; >+>+a >+= = = = = = = = = >+; = = = = >+>+>+>+= = = >+a >+= >+q.= = a = = = = = = = = = = = = = = = = = = = ",
"{ a >+>+>+>+>+~ ; >+>+; q.= = = = = = = = = = = }.= = = = >+~ >+= = = = = ; a = >+~ = = ; = = = = = = = = = = = = = h.= = = = = ",
" .C+; >+~ ~ a ; ; >+q.a = h.= = = = = = = = = q.= = = = >+>+>+>+= = = = = >+a >+~ q+= ; % = = = = = = = = = = = = = = = = = = = ",
"M+ .a ; ; a a ; ; ; J+>+>+= = = = = = h.= = = ; = = h.= = >+>+>+= = = = = = a ~ >+K+>+a h.= h.h.h.= = = = = = = = = = = = = = = "};
