/* XPM */
static char * bitcoin32_xpm[] = {
"32 32 161 2",
"  	c None",
". 	c #2E3132",
"+ 	c #2F3233",
"@ 	c #2E3232",
"# 	c #2E3233",
"$ 	c #2F3234",
"% 	c #2E3133",
"& 	c #2F3334",
"* 	c #2F3133",
"= 	c #2F3335",
"- 	c #2F3132",
"; 	c #2E3234",
"> 	c #313639",
", 	c #303436",
"' 	c #33393D",
") 	c #2E2E31",
"! 	c #2E2F31",
"~ 	c #2F2F31",
"{ 	c #2A544B",
"] 	c #258B71",
"^ 	c #277D67",
"/ 	c #2C413E",
"( 	c #2E3033",
"_ 	c #2E3134",
": 	c #26856C",
"< 	c #20C79A",
"[ 	c #20C699",
"} 	c #1FD6A4",
"| 	c #2C4843",
"1 	c #2B4D46",
"2 	c #1FCE9F",
"3 	c #21B990",
"4 	c #20C296",
"5 	c #2F2B30",
"6 	c #2E3032",
"7 	c #2D3F3D",
"8 	c #2A584D",
"9 	c #2A5C51",
"0 	c #23A583",
"a 	c #20CC9D",
"b 	c #302028",
"c 	c #2C4944",
"d 	c #1FCC9D",
"e 	c #26846C",
"f 	c #2A5F53",
"g 	c #2B5149",
"h 	c #2E3939",
"i 	c #2F3235",
"j 	c #26826A",
"k 	c #20C89A",
"l 	c #20CD9E",
"m 	c #267A64",
"n 	c #22A986",
"o 	c #20C498",
"p 	c #1FD5A3",
"q 	c #2B4943",
"r 	c #2F3336",
"s 	c #33393C",
"t 	c #303438",
"u 	c #2D403D",
"v 	c #1FD0A0",
"w 	c #21C095",
"x 	c #21BD93",
"y 	c #2F282D",
"z 	c #296556",
"A 	c #20C89B",
"B 	c #301F27",
"C 	c #26816A",
"D 	c #20C598",
"E 	c #20CA9C",
"F 	c #2C534B",
"G 	c #2C4340",
"H 	c #1FCD9E",
"I 	c #1FD3A2",
"J 	c #2E2F33",
"K 	c #2B534A",
"L 	c #20CB9C",
"M 	c #1FCE9E",
"N 	c #22A885",
"O 	c #295E52",
"P 	c #259276",
"Q 	c #20C599",
"R 	c #277C66",
"S 	c #287360",
"T 	c #20C799",
"U 	c #1FD4A2",
"V 	c #302027",
"W 	c #2F252B",
"X 	c #23A683",
"Y 	c #2F2A2E",
"Z 	c #2E3436",
"` 	c #2E3335",
" .	c #2F292E",
"..	c #259073",
"+.	c #2E2F32",
"@.	c #296255",
"#.	c #20C99B",
"$.	c #2A5048",
"%.	c #311C25",
"&.	c #22B48D",
"*.	c #1FD4A3",
"=.	c #2E2D30",
"-.	c #287460",
";.	c #26836B",
">.	c #2C403D",
",.	c #21BE93",
"'.	c #312129",
").	c #22B58D",
"!.	c #1FCF9E",
"~.	c #30242B",
"{.	c #2F3738",
"].	c #2F3436",
"^.	c #2B544C",
"/.	c #249A7C",
"(.	c #2E3235",
"_.	c #2A594F",
":.	c #249D7D",
"<.	c #249477",
"[.	c #20BF95",
"}.	c #286E5D",
"|.	c #286758",
"1.	c #2F2229",
"2.	c #2E3334",
"3.	c #296456",
"4.	c #301923",
"5.	c #277A65",
"6.	c #2C4E47",
"7.	c #2E2C30",
"8.	c #1ED8A5",
"9.	c #22AF8A",
"0.	c #2F2A2F",
"a.	c #2E3034",
"b.	c #296254",
"c.	c #1FD2A2",
"d.	c #20C195",
"e.	c #2C4A45",
"f.	c #20CD9D",
"g.	c #1ED5A4",
"h.	c #2E3737",
"i.	c #2D4C47",
"j.	c #249A7B",
"k.	c #1FCB9D",
"l.	c #2F2E33",
"m.	c #2A5A50",
"n.	c #277461",
"o.	c #2C4D47",
"p.	c #2B4945",
"q.	c #2D3838",
"r.	c #1FD7A5",
"s.	c #20C397",
"t.	c #21BA91",
"u.	c #303437",
"v.	c #2F3134",
"w.	c #29695A",
"x.	c #1FCF9F",
"y.	c #1ED3A2",
"z.	c #2D3839",
"A.	c #2C4642",
"B.	c #296D5D",
"C.	c #296759",
"D.	c #2E3637",
". . . . . . . . + . . . . . . . @ + # @ . . # $ # # $ $ + + @ . ",
"+ % % . . . $ # . . . . . @ # # % . . . . % & * % @ * # + & $ # ",
"= . % % . + @ % % . # + + . . . . . . . . # & . . # . - % # = = ",
"= * . $ ; . % + $ # . . . . . . . . . . . + $ . . . % + . # > , ",
"; , $ = $ + % . . % % . . . . . . . . . % & % . . . # $ % $ , + ",
"= ' , $ ; % . . . . % % % . . . . . . . $ & . . . . $ $ $ $ # . ",
"= ; ; $ $ = $ + % . % % # % . ) ! . . % $ $ % . . . # , # % # . ",
"= $ # $ % $ $ # # # $ $ $ ~ { ] ^ / ( _ $ # % % % # $ = % ; % % ",
"= $ ; % $ % # # ; ; % % ) : < [ [ } | $ $ _ % % # $ % # $ # % % ",
"= $ # % % $ % $ % % # $ 1 2 [ 3 4 [ < 5 = $ % ; $ % % % = $ # % ",
"= $ ; % % % ; ; 6 7 8 9 0 [ a b c d < e f g h = i ; % % = = % % ",
"$ ; # % % % # % j k [ [ [ [ l m n o [ [ [ [ p q % ; ; r s t r , ",
"$ $ ; # % % % u v [ o 4 [ [ [ [ [ [ [ [ w [ [ x y ; $ $ ; % % % ",
"$ ; # ; % % % z A < B C D [ [ [ [ [ [ E F G H I J $ % % $ % % % ",
"; ; # ; # % % K L M 7 N [ [ D O P Q [ [ R S T U V % % & % % % % ",
"; ; ; ; # # # W o [ T [ [ X Y Z `  .I [ [ T [ ..+.% % $ % % % % ",
"; ; ; # ; ; ; ; @.#.[ [ D j $.L 2 %.&.[ [ [ *.=.% % % i % % % % ",
"; ; _ ; ; ; ; ` -.[ [ [ D ;.>.v ,.'.).[ [ [ M / % % $ % % % % % ",
"= ; ; _ ; _ ; b *.[ #.[ [ !.~.{.].^.#.[ [ A [ /.) % = % % % % % ",
"(.i ; _ _ ; ; _.E I J :.[ [ Q <.[.< [ k }.|.k } 1._ $ % % % % % ",
"; ; i 2.% % _ 3.A U 4.5.D [ [ [ [ [ [ d | 6.E p 7.$ % _ _ _ _ _ ",
"; ; ; i ; % _ ) 8.[ < [ [ [ [ [ [ [ [ [ [ < [ 9.0.= % % _ % % _ ",
"; ; ; ; (.i _ a.b.c.D Q [ [ d.e.3.f.[ [ [ [ g.(.(.$ _ _ _ _ _ _ ",
"; ; ; ; _ ; i ; ( h.1 i.j.Q k.l.m.#.< n.o.p.( _ i _ _ _ _ _ _ _ ",
"; ; ; ; _ _ ; (.= ; ; i q.r.[ s.[ [ t.0.(._ _ _ = _ _ _ _ _ _ _ ",
"i ; ; ; ; _ _ _ > u.(.; v.w.x.[ D y.z.; i _ _ _ i _ _ _ _ _ _ _ ",
"i ; ; ; ; ; _ (.(.= _ ; = ( A.B.C.D.; ; (._ ; = _ _ ; _ ; ; _ ; ",
"` ; ; ; ; ; (.i i _ _ ; = ; ; v.i ` _ _ (._ ; r ; _ _ _ _ ; _ ; ",
"i ; ; ; ; (.(.(.(.; _ ; (.; ; i (.r ; _ (._ $ _ _ _ ; ; _ ; ; _ ",
"(.; ; ; ; (.(.` _ ; ; ; ` ; ; (.; ; (.; (.; = ; ; ; ; ; ; ; ; ; ",
"(.(.; (.i (.= ; ; ; ; ; i ; ; (.(.; r ; (.; = ; ; ; ; ; ; ; ; ; ",
"t (.i = (.= ; ; ; ; ; ; ; ; (.(.; ; ; ` i ; $ ; ; ; ; ; ; ; ; ; "};
