/* XPM */
static char * bitcoin16_xpm[] = {
"16 16 93 2",
"  	c None",
". 	c #2E3132",
"+ 	c #2E3233",
"@ 	c #2E3232",
"# 	c #2F3234",
"$ 	c #2F3233",
"% 	c #2E3133",
"& 	c #2F3132",
"* 	c #303436",
"= 	c #303437",
"- 	c #2F3335",
"; 	c #2E3234",
"> 	c #2E3032",
", 	c #2C3E3B",
"' 	c #2D3837",
") 	c #2F3235",
"! 	c #296254",
"~ 	c #1FD0A0",
"{ 	c #1EDDA9",
"] 	c #2D403E",
"^ 	c #2F3134",
"/ 	c #2E3134",
"( 	c #2C4540",
"_ 	c #296858",
": 	c #21BE94",
"< 	c #287562",
"[ 	c #259074",
"} 	c #22AE89",
"| 	c #296859",
"1 	c #2E403E",
"2 	c #1ED6A4",
"3 	c #21B890",
"4 	c #20C799",
"5 	c #20C89A",
"6 	c #20C79A",
"7 	c #22B88F",
"8 	c #1FCFA0",
"9 	c #2F232A",
"0 	c #2D3939",
"a 	c #1EDDA8",
"b 	c #286D5D",
"c 	c #25896F",
"d 	c #23A986",
"e 	c #20CB9C",
"f 	c #28725F",
"g 	c #1EDCA8",
"h 	c #301D25",
"i 	c #2E2F32",
"j 	c #24997A",
"k 	c #20C699",
"l 	c #23A783",
"m 	c #258A70",
"n 	c #296C5C",
"o 	c #20C69A",
"p 	c #20C598",
"q 	c #26816A",
"r 	c #301E26",
"s 	c #1FD6A4",
"t 	c #1FD4A2",
"u 	c #31232A",
"v 	c #2E3A3A",
"w 	c #1FCF9F",
"x 	c #20CA9C",
"y 	c #22B48D",
"z 	c #2F292E",
"A 	c #2C4542",
"B 	c #1EE0AB",
"C 	c #2D3436",
"D 	c #1FD1A1",
"E 	c #2E3737",
"F 	c #1EE3AD",
"G 	c #2F242A",
"H 	c #2E2C31",
"I 	c #22AC87",
"J 	c #1FCE9E",
"K 	c #258D72",
"L 	c #24A17F",
"M 	c #1FCE9F",
"N 	c #259176",
"O 	c #2F3133",
"P 	c #2E3235",
"Q 	c #2F3033",
"R 	c #2F3336",
"S 	c #259578",
"T 	c #21BC92",
"U 	c #277E68",
"V 	c #2E3436",
"W 	c #2F3436",
"X 	c #277C67",
"Y 	c #287361",
"Z 	c #2E2E31",
"` 	c #2E3135",
" .	c #2E3335",
". . . + . . . + + @ . # + # $ + ",
"# % + % % + . . . . . $ . & . * ",
"= - $ . . % . . . . # . . # # # ",
"; ; # # % % > , ' > # % . - % % ",
") % # + ; > ! ~ { ] ^ % # % # % ",
"# % % / ( _ : < [ } | 1 ; % * % ",
"# ; % % 2 3 4 5 4 6 7 8 9 # % % ",
"; ; + 0 a b 5 c d e f g h # % % ",
"; + ; i j k l m n o p q % # % % ",
"; / ; r s e t u v w x y z # % % ",
"; - % A B C x p 6 D E F G % / / ",
"; ; ) H I J 6 K L 5 M N O / / / ",
"; ; / P Q R S y T U V i ) / / / ",
") ; ; / W / V X Y Z ` ; / / ; / ",
"; ; ; P P / P Q ) / ` # / ; / / ",
"P ; P  .; ; P ; ; P ; - ; ; ; ; "};
